# xmcd
#
# Track frame offsets:
#	150
#	9350
#	22675
#	35475
#	46475
#	56425
#	67700
#	84850
#	99675
#	119225
#	133000
#	150225
#
# Disc length: 2200 seconds
#
# Revision: 0
# Processed by: cddbd v1.5PL3 Copyright (c) Steve Scherf et al.
# Submitted via: dBpowerAMP V4.0
#
DISCID=8808960c
DTITLE=Aubrey Freeman - Aubrey Freeman's Best Country and Gospel
DYEAR=2003
DGENRE=Country
TTITLE0=Optimistic
TTITLE1=The Love of an Angel
TTITLE2=Rasing Cane, Cotton, Corn and Kids
TTITLE3=You Want Everything but Me
TTITLE4=Cold Feet
TTITLE5=Let the Lying Dog Sleep
TTITLE6=Streets of Gold
TTITLE7=From the Manger to the Cross
TTITLE8=Devil Be Gone
TTITLE9=In the Shadow of the Son
TTITLE10=How do You get to Heaven from Here
TTITLE11=It's not Over
EXTD=
EXTT0=
EXTT1=
EXTT2=
EXTT3=
EXTT4=
EXTT5=
EXTT6=
EXTT7=
EXTT8=
EXTT9=
EXTT10=
EXTT11=
PLAYORDER=
